<svg viewBox="0 0 24 24" width="24" height="24" fill="currentColor"
    class="xfx01vb x1lliihq x1tzjh5l x1k90msu x2h7rmj x1qfuztq"
    style="--color:var(--secondary-icon)">
    <path d="M12 5a4 4 0 1 0 0 8 4 4 0 0 0 0-8zm-2 4a2 2 0 1 1 4 0 2 2 0 0 1-4 0z"></path>
    <path
        d="M12 .5C5.649.5.5 5.649.5 12S5.649 23.5 12 23.5 23.5 18.351 23.5 12 18.351.5 12 .5zM2.5 12c0-.682.072-1.348.209-1.99a2 2 0 0 1 0 3.98A9.539 9.539 0 0 1 2.5 12zm4 0a4.001 4.001 0 0 0-3.16-3.912A9.502 9.502 0 0 1 12 2.5a9.502 9.502 0 0 1 8.66 5.588 4.001 4.001 0 0 0 0 7.824 9.514 9.514 0 0 1-1.755 2.613A5.002 5.002 0 0 0 14 14.5h-4a5.002 5.002 0 0 0-4.905 4.025 9.515 9.515 0 0 1-1.755-2.613A4.001 4.001 0 0 0 6.5 12zm13 0a2 2 0 0 1 1.791-1.99 9.538 9.538 0 0 1 0 3.98A2 2 0 0 1 19.5 12zm-2.51 8.086A9.455 9.455 0 0 1 12 21.5c-1.83 0-3.54-.517-4.99-1.414a1.004 1.004 0 0 1-.01-.148V19.5a3 3 0 0 1 3-3h4a3 3 0 0 1 3 3v.438a1 1 0 0 1-.01.148z"></path>
</svg>